# xmcd
#
# Track frame offsets:
# 150
# 19709
# 43878
# 58641
# 70222
# 148222
# 180908
# 208948
# 221764
# 238030
#
# Disc length: 4251 seconds
#
#
# Revision: 26
# Processed by: cddbd v1.5.1PL0 Copyright (c) Steve Scherf et al.
# Submitted via: FreeRIP 2.90 
#
DISCID=9a10990a
DTITLE=Doors, The - Box Set - Part 1 Disc 2: Live In New York
DYEAR=1998
DGENRE=
TTITLE0=Roadhouse Blues
TTITLE1=Ship Of Fools
TTITLE2=Peace Frog
TTITLE3=Blue Sunday
TTITLE4=The Celebration Of the Lizard
TTITLE5=Gloria
TTITLE6=Crawling King Snake
TTITLE7=Money
TTITLE8=Poontang Blues-Build Me A Woman-Sunday Trucker
TTITLE9=The End
EXTD=YEAR: 1998
EXTT0=
EXTT1=
EXTT2=
EXTT3=
EXTT4=
EXTT5=
EXTT6=
EXTT7=
EXTT8=
EXTT9=
PLAYORDER=
